<svg xmlns="http://www.w3.org/2000/svg" viewBox="0 0 42.97 42.75"><defs><style>.cls-1{fill:#868685;}</style></defs><title>Ativo 23</title><g id="Camada_2" data-name="Camada 2"><g id="Camada_1-2" data-name="Camada 1"><path class="cls-1" d="M0,37.59a5.17,5.17,0,0,0,5.16,5.16H35.54a5.17,5.17,0,0,0,5.17-5.16V28A.84.84,0,1,0,39,28v9.61a3.5,3.5,0,0,1-3.5,3.5H5.16a3.5,3.5,0,0,1-3.49-3.5V9.37A3.5,3.5,0,0,1,5.16,5.88h9.62A.84.84,0,0,0,15.61,5a.83.83,0,0,0-.83-.83H5.16A5.17,5.17,0,0,0,0,9.37Z"/><path class="cls-1" d="M14.29,21l-2.54,9.18A.84.84,0,0,0,12,31a.83.83,0,0,0,.81.21l9.17-2.54a.85.85,0,0,0,.37-.21L41.62,9.16a4.64,4.64,0,0,0,0-6.54L40.35,1.35a4.62,4.62,0,0,0-6.53,0L14.5,20.67A.78.78,0,0,0,14.29,21ZM35.17,2.71a2.7,2.7,0,0,1,3.83,0L40.27,4a2.71,2.71,0,0,1,0,3.82L39.12,9,34,3.85ZM32.49,5.39l5.1,5.09L21.78,26.29l-5.1-5.09ZM19.74,27.31,14.1,28.87l1.56-5.63Z"/></g></g></svg>